<svg width="232" height="64" viewBox="0 0 232 64" fill="none" xmlns="http://www.w3.org/2000/svg">
<path d="M17.25 11.7H21.5L26.2 24.05L30.95 11.7H35.2L29.05 27.15L35.15 41.8L47.15 11.5H52.05L37.2 47H33.3L26.25 30.25L19.15 47H15.25L0.45 11.5H5.3L17.35 41.8L23.4 27.15L17.25 11.7Z" fill="#FFFFFF"/>
<path d="M61.27 16.7H63.04L71.89 38H69.67L66.91 31.34H57.34L54.61 38H52.36L61.27 16.7ZM66.43 29.69L62.14 19.16L57.79 29.69H66.43ZM77.0434 20.57V38H74.9434V16.7H76.6834L90.6634 34.46V16.73H92.7634V38H90.8134L77.0434 20.57ZM98.1173 38V16.7H105.347C107.607 16.7 109.487 17.18 110.987 18.14C112.507 19.08 113.647 20.36 114.407 21.98C115.167 23.58 115.547 25.36 115.547 27.32C115.547 29.48 115.127 31.36 114.287 32.96C113.447 34.56 112.267 35.8 110.747 36.68C109.227 37.56 107.427 38 105.347 38H98.1173ZM113.447 27.32C113.447 25.62 113.127 24.11 112.487 22.79C111.867 21.47 110.947 20.44 109.727 19.7C108.527 18.94 107.067 18.56 105.347 18.56H100.217V36.14H105.347C107.107 36.14 108.587 35.75 109.787 34.97C110.987 34.19 111.897 33.14 112.517 31.82C113.137 30.5 113.447 29 113.447 27.32ZM133.873 36.14V38H119.563V16.7H133.603V18.56H121.663V26.24H132.073V28.01H121.663V36.14H133.873ZM137.844 38V16.7H146.844C147.764 16.7 148.604 16.89 149.364 17.27C150.144 17.65 150.814 18.17 151.374 18.83C151.934 19.47 152.364 20.19 152.664 20.99C152.984 21.77 153.144 22.57 153.144 23.39C153.144 24.43 152.944 25.4 152.544 26.3C152.164 27.2 151.614 27.96 150.894 28.58C150.174 29.2 149.344 29.6 148.404 29.78L153.624 38H151.254L146.244 30.14H139.944V38H137.844ZM139.944 28.28H146.904C147.744 28.28 148.474 28.05 149.094 27.59C149.714 27.11 150.194 26.5 150.534 25.76C150.874 25.02 151.044 24.23 151.044 23.39C151.044 22.53 150.844 21.74 150.444 21.02C150.064 20.28 149.544 19.69 148.884 19.25C148.224 18.79 147.504 18.56 146.724 18.56H139.944V28.28Z" fill="#FFFFFF"/>
<path d="M157.443 38V16.7H159.543V36.14H171.843V38H157.443ZM182.666 38.15C180.986 38.15 179.566 37.85 178.406 37.25C177.266 36.65 176.346 35.84 175.646 34.82C174.946 33.8 174.446 32.66 174.146 31.4C173.846 30.12 173.696 28.8 173.696 27.44V16.7H175.766V27.44C175.766 28.56 175.876 29.65 176.096 30.71C176.336 31.75 176.716 32.69 177.236 33.53C177.756 34.37 178.456 35.04 179.336 35.54C180.216 36.02 181.316 36.26 182.636 36.26C183.996 36.26 185.116 36.01 185.996 35.51C186.896 35.01 187.606 34.34 188.126 33.5C188.646 32.64 189.006 31.69 189.206 30.65C189.426 29.59 189.536 28.52 189.536 27.44V16.7H191.636V27.44C191.636 28.86 191.476 30.22 191.156 31.52C190.836 32.8 190.316 33.94 189.596 34.94C188.896 35.94 187.976 36.73 186.836 37.31C185.696 37.87 184.306 38.15 182.666 38.15ZM209.093 20.69C208.493 20.03 207.693 19.49 206.693 19.07C205.693 18.63 204.553 18.41 203.273 18.41C201.393 18.41 200.023 18.77 199.163 19.49C198.303 20.19 197.873 21.15 197.873 22.37C197.873 23.21 198.083 23.87 198.503 24.35C198.923 24.83 199.563 25.23 200.423 25.55C201.303 25.85 202.423 26.15 203.783 26.45C205.303 26.77 206.613 27.15 207.713 27.59C208.813 28.03 209.663 28.63 210.263 29.39C210.863 30.13 211.163 31.14 211.163 32.42C211.163 33.72 210.833 34.8 210.173 35.66C209.513 36.52 208.603 37.16 207.443 37.58C206.283 37.98 204.963 38.18 203.483 38.18C200.163 38.18 197.313 37.15 194.933 35.09L195.983 33.38C196.743 34.18 197.783 34.87 199.103 35.45C200.443 36.03 201.923 36.32 203.543 36.32C205.223 36.32 206.543 36.01 207.503 35.39C208.463 34.77 208.943 33.85 208.943 32.63C208.943 31.75 208.703 31.05 208.223 30.53C207.743 29.99 207.023 29.55 206.063 29.21C205.103 28.87 203.923 28.54 202.523 28.22C201.043 27.88 199.793 27.5 198.773 27.08C197.773 26.66 197.013 26.11 196.493 25.43C195.973 24.75 195.713 23.83 195.713 22.67C195.713 21.35 196.033 20.24 196.673 19.34C197.333 18.42 198.233 17.73 199.373 17.27C200.513 16.79 201.823 16.55 203.303 16.55C204.703 16.55 205.963 16.77 207.083 17.21C208.203 17.63 209.213 18.23 210.113 19.01L209.093 20.69ZM229.956 18.56H222.366V38H220.266V18.56H212.676V16.7H229.956V18.56Z" fill="#FFFFFF"/>
</svg>
