<svg aria-hidden="true" style="position: absolute; width: 0; height: 0; overflow: hidden;" version="1.1" xmlns="http://www.w3.org/2000/svg" xmlns:xlink="http://www.w3.org/1999/xlink">
<defs>
<symbol id="icon-target-arrow" viewBox="0 0 32 32">
<path d="M9 23.771l-1 1v3.229h-1v-2.229l-1.293 1.293-0.707-0.707 1.357-1.357h-2.357v-1h3.357l1-1h-2.357v-1h3.357l5.322-5.322-0.678-0.678 3-1-1 3-0.614-0.614-5.386 5.386v3.229h-1v-2.229zM7.779 21c-1.125-1.726-1.779-3.786-1.779-6 0-6.075 4.925-11 11-11s11 4.925 11 11c0 6.075-4.925 11-11 11-2.214 0-4.274-0.654-6-1.779v-1.072l2.242-2.242c1.086 0.692 2.375 1.093 3.758 1.093 3.866 0 7-3.134 7-7s-3.134-7-7-7c-3.866 0-7 3.134-7 7 0 1.397 0.409 2.699 1.115 3.792l-2.208 2.208h-1.128zM15.497 18.652l-1.527 1.527c0.889 0.521 1.925 0.82 3.030 0.82 3.314 0 6-2.686 6-6s-2.686-6-6-6c-3.314 0-6 2.686-6 6 0 1.12 0.307 2.168 0.841 3.065v0l1.526-1.526-0.951-0.944 1.588-0.454c-0.002-0.047-0.003-0.094-0.003-0.142 0-1.657 1.343-3 3-3s3 1.343 3 3c0 1.657-1.343 3-3 3-0.048 0-0.095-0.001-0.142-0.003l-0.447 1.563-0.915-0.907zM17.144 16.995c1.037-0.074 1.856-0.939 1.856-1.995 0-1.105-0.895-2-2-2-1.056 0-1.921 0.818-1.995 1.856l2.995-0.856-0.856 2.995z"></path>
</symbol>
<symbol id="icon-telescope" viewBox="0 0 35 32">
<path d="M27.464 2.314c-0.053-0.132-0.159-0.235-0.292-0.284s-0.281-0.039-0.406 0.027l-11.906 6.282c-0.224 0.118-0.324 0.385-0.233 0.621l0.245 0.641-6.873 3.769c-0.225 0.123-0.32 0.395-0.222 0.63l0.228 0.549-7.299 3.488c-0.24 0.115-0.348 0.397-0.246 0.643l1.498 3.61c0.080 0.192 0.265 0.309 0.462 0.309 0.056 0 0.112-0.009 0.167-0.029l7.625-2.701 0.228 0.549c0.079 0.191 0.264 0.309 0.462 0.309 0.046 0 0.092-0.006 0.139-0.020l7.276-2.097 0.218 0.569c0.074 0.197 0.263 0.321 0.465 0.321 0.049 0 0.098-0.007 0.147-0.022l13-4c0.134-0.041 0.244-0.136 0.304-0.262s0.065-0.272 0.013-0.401l-5-12.501zM2.7 21.469l-1.134-2.734 6.823-3.261 1.439 3.47-7.128 2.525zM11.191 19.623l-0.238-0.574c0 0 0 0 0 0l-1.843-4.445c0 0 0 0 0 0l-0.238-0.573 6.336-3.475 2.374 6.134 0.375 0.981-6.766 1.952zM19.3 18.385l-0.203-0.531c-0.003-0.011-0.001-0.024-0.006-0.035l-0.618-1.597-2.754-7.206 11.023-5.815 4.592 11.48-12.034 3.704zM28.964 0.314c-0.103-0.257-0.395-0.381-0.65-0.279-0.256 0.103-0.381 0.394-0.279 0.65l6 15c0.079 0.196 0.267 0.315 0.465 0.315 0.062 0 0.125-0.011 0.186-0.036 0.256-0.103 0.381-0.394 0.279-0.65l-6.001-15zM18 21h-3c-1.14 0-2 0.86-2 2v1.315l-5.879 6.859c-0.18 0.209-0.156 0.525 0.054 0.705 0.094 0.081 0.21 0.121 0.325 0.121 0.141 0 0.281-0.059 0.379-0.175l5.851-6.825h2.27v6.5c0 0.276 0.224 0.5 0.5 0.5s0.5-0.224 0.5-0.5v-6.5h2.27l5.85 6.825c0.099 0.116 0.239 0.175 0.38 0.175 0.115 0 0.231-0.040 0.325-0.121 0.21-0.18 0.234-0.495 0.054-0.705l-5.879-6.859v-1.24c0-1.163-0.878-2.075-2-2.075zM19 24h-5v-1c0-0.589 0.411-1 1-1h3c0.57 0 1 0.462 1 1.075v0.925z"></path>
</symbol>
<symbol id="icon-linegraph" viewBox="0 0 42 32">
<path d="M39 0c-1.654 0-3 1.346-3 3 0 0.888 0.396 1.679 1.011 2.229l-8.8 14.031c-0.371-0.165-0.78-0.26-1.211-0.26-0.868 0-1.644 0.376-2.193 0.967l-9.073-5.745c0.168-0.374 0.266-0.786 0.266-1.222 0-1.654-1.346-3-3-3s-3 1.346-3 3c0 0.904 0.41 1.706 1.044 2.256l-6.895 10.975c-0.354-0.148-0.742-0.231-1.149-0.231-1.654 0-3 1.346-3 3s1.346 3 3 3 3-1.346 3-3c0-0.888-0.395-1.678-1.010-2.228l6.904-10.99c0.343 0.138 0.715 0.218 1.106 0.218 0.859 0 1.629-0.367 2.176-0.947l9.078 5.748c-0.161 0.368-0.254 0.772-0.254 1.199 0 1.654 1.346 3 3 3s3-1.346 3-3c0-0.863-0.371-1.636-0.957-2.184l8.81-14.046c0.354 0.147 0.741 0.23 1.147 0.23 1.654 0 3-1.346 3-3s-1.346-3-3-3zM5 29c0 1.103-0.897 2-2 2s-2-0.897-2-2 0.897-2 2-2 2 0.897 2 2zM13 15c-1.103 0-2-0.897-2-2s0.897-2 2-2 2 0.897 2 2-0.897 2-2 2zM27 24c-1.103 0-2-0.897-2-2s0.897-2 2-2 2 0.897 2 2-0.897 2-2 2zM39 5c-1.103 0-2-0.897-2-2s0.897-2 2-2 2 0.897 2 2-0.897 2-2 2z"></path>
</symbol>
<symbol id="icon-profile-female" viewBox="0 0 36 32">
<path d="M22.22 20.726c-0.157-0.024-0.317 0.038-0.425 0.155-0.109 0.116-0.156 0.278-0.126 0.435 0.276 1.45 1.205 3.44 4.057 4.679 0.338 0.146 0.86 0.26 1.522 0.403 2.478 0.536 6.622 1.434 7.64 5.232 0.060 0.223 0.262 0.37 0.483 0.37 0.043 0 0.086-0.006 0.13-0.017 0.267-0.072 0.425-0.346 0.354-0.613-1.177-4.387-5.872-5.404-8.395-5.95-0.584-0.127-1.089-0.236-1.336-0.344-1.714-0.744-2.821-1.848-3.301-3.286 4.762 0.354 6.918-1.543 7.013-1.629 0.118-0.107 0.179-0.266 0.161-0.425s-0.11-0.3-0.249-0.38c-2.748-1.57-2.748-6.995-2.748-9.038 0-5.713-3.848-10.242-8.781-10.313-0.014-0.001-0.121-0.003-0.141-0.003 0 0 0 0-0.001 0-5.005 0.028-9.077 4.562-9.077 10.108 0 2.043 0 7.469-2.748 9.038-0.145 0.083-0.238 0.232-0.251 0.398-0.012 0.166 0.060 0.328 0.191 0.431 0.138 0.107 3.188 2.441 6.941 1.732-0.502 1.378-1.594 2.438-3.258 3.161-0.241 0.105-0.721 0.22-1.277 0.352-2.54 0.604-7.269 1.729-8.453 6.147-0.071 0.268 0.087 0.541 0.354 0.613 0.271 0.067 0.541-0.088 0.613-0.354 1.029-3.844 5.217-4.839 7.718-5.435 0.627-0.149 1.122-0.267 1.444-0.406 2.852-1.239 3.78-3.229 4.057-4.679 0.033-0.173-0.027-0.351-0.159-0.467-0.131-0.117-0.312-0.157-0.482-0.104-2.707 0.852-5.208-0.32-6.301-0.97 2.611-2.186 2.611-7.217 2.611-9.457 0-4.997 3.626-9.083 8.12-9.11 0.005 0 0.102 0.006 0.106 0.006 4.432 0.063 7.774 4.066 7.774 9.312 0 2.241 0 7.283 2.622 9.469-0.903 0.516-2.962 1.351-6.402 0.939z"></path>
</symbol>
<symbol id="icon-chat" viewBox="0 0 42 32">
<path d="M35.652 14.023c-0.264-0.082-0.544 0.062-0.628 0.325-0.083 0.263 0.062 0.544 0.325 0.628 3.908 1.245 5.651 3.102 5.651 6.024 0 2.599-2.371 4.616-3.783 5.588-0.136 0.094-0.217 0.247-0.217 0.412v3.823c-0.73-0.272-2.003-0.89-3.126-2.155-0.117-0.131-0.295-0.191-0.468-0.159-0.285 0.055-0.576 0.133-0.871 0.212-0.51 0.137-1.036 0.279-1.535 0.279-2.568 0-4.366-0.552-6.204-1.903-0.224-0.164-0.535-0.115-0.699 0.107-0.164 0.223-0.116 0.535 0.106 0.699 2.027 1.49 3.996 2.097 6.797 2.097 0.631 0 1.223-0.159 1.795-0.313 0.178-0.049 0.355-0.097 0.53-0.138 1.869 1.974 3.983 2.423 4.075 2.441 0.033 0.007 0.066 0.010 0.1 0.010 0.114 0 0.227-0.039 0.316-0.113 0.117-0.095 0.184-0.237 0.184-0.387v-4.239c2.582-1.841 4-4.057 4-6.261 0-3.381-2.017-5.598-6.348-6.977zM33 13.5c0-7.696-7.018-13.5-16.323-13.5-9.352 0-16.677 5.931-16.677 13.502 0 4.539 3.211 7.791 6 9.759v6.636c0 0.17 0.086 0.327 0.228 0.42 0.083 0.053 0.177 0.080 0.272 0.080 0.069 0 0.139-0.015 0.205-0.044 0.146-0.065 3.559-1.616 6.479-4.809 1.265 0.235 2.696 0.461 3.994 0.461 9.463 0 15.822-5.026 15.822-12.505zM17.177 25.005c-1.31 0-2.799-0.251-4.083-0.496-0.173-0.031-0.351 0.028-0.468 0.159-2.050 2.312-4.459 3.781-5.626 4.414v-6.082c0-0.165-0.081-0.318-0.217-0.412-2.638-1.815-5.783-4.863-5.783-9.086 0-7.011 6.886-12.502 15.677-12.502 8.736 0 15.323 5.374 15.323 12.5 0 6.882-5.957 11.505-14.823 11.505zM16.5 11.5c-1.103 0-2 0.897-2 2s0.897 2 2 2 2-0.897 2-2-0.897-2-2-2zM16.5 14.5c-0.551 0-1-0.448-1-1s0.449-1 1-1 1 0.448 1 1-0.449 1-1 1zM23.5 11.5c-1.103 0-2 0.897-2 2s0.897 2 2 2 2-0.897 2-2-0.897-2-2-2zM23.5 14.5c-0.551 0-1-0.448-1-1s0.449-1 1-1 1 0.448 1 1-0.449 1-1 1zM9.5 11.595c-1.103 0-2 0.897-2 2s0.897 2 2 2 2-0.897 2-2-0.897-2-2-2zM9.5 14.595c-0.551 0-1-0.448-1-1s0.449-1 1-1 1 0.448 1 1-0.449 1-1 1z"></path>
</symbol>
<symbol id="icon-suitcase" viewBox="0 0 32 32">
<path d="M28 29h-24c-1.104 0-2-0.896-2-2v-9h4v3h4v-3h12v3h4v-3h4v9c0 1.104-0.896 2-2 2zM23 20v-4h2v4h-2zM7 20v-4h2v4h-2zM26 15h-4v2h-12v-2h-4v2h-4v-7c0-1.104 0.896-2 2-2h24c1.104 0 2 0.896 2 2v7h-4v-2zM19 4.979h-6v2.021h-2v-0.979h1v-3.021h8.021v3h0.979v1h-2v-2.021z"></path>
</symbol>
<symbol id="icon-dollar" viewBox="0 0 38 32">
<path d="M36.002 23.010l0.057-17.089-31.050 0.019-0.001-1.96h32.992v19.031l-1.998-0.001zM34.995 26.017l-1.997-0.002 0.057-17.089-31.050 0.020-0.001-1.96h32.992v19.031zM32.053 28.020h-32.053v-18.030h32.053v18.030zM30.049 11.931h-28.046v14.086h28.045v-14.086zM27.045 24.515c0 0.177 0.044 0.342 0.101 0.5h-11.12c2.766 0 5.009-2.69 5.009-6.010s-2.243-6.010-5.009-6.010h11.119c-0.057 0.158-0.101 0.323-0.101 0.501 0 0.83 0.672 1.502 1.502 1.502 0.178 0 0.343-0.044 0.501-0.101v8.215c-0.158-0.056-0.323-0.101-0.501-0.101-0.829 0.001-1.501 0.674-1.501 1.504zM25.041 16.919c-0.83 0-1.502 0.896-1.502 2.003s0.672 2.003 1.502 2.003 1.502-0.896 1.502-2.003-0.672-2.003-1.502-2.003zM18.123 15.394c0.015 0.029 0.027 0.068 0.037 0.116 0.011 0.048 0.018 0.109 0.021 0.182 0.005 0.073 0.007 0.164 0.007 0.273 0 0.121-0.003 0.224-0.009 0.307-0.007 0.084-0.018 0.153-0.031 0.207-0.016 0.055-0.036 0.095-0.062 0.119-0.027 0.025-0.064 0.038-0.11 0.038s-0.118-0.029-0.219-0.087c-0.101-0.059-0.224-0.121-0.369-0.189s-0.315-0.131-0.507-0.187-0.402-0.084-0.632-0.084c-0.18 0-0.336 0.021-0.469 0.065-0.134 0.044-0.246 0.104-0.335 0.181s-0.157 0.17-0.2 0.277c-0.044 0.108-0.066 0.223-0.066 0.343 0 0.18 0.049 0.335 0.147 0.467s0.229 0.248 0.395 0.35c0.165 0.103 0.352 0.198 0.56 0.288s0.421 0.185 0.638 0.284c0.217 0.101 0.43 0.214 0.639 0.342 0.209 0.127 0.395 0.279 0.557 0.456 0.163 0.178 0.295 0.386 0.395 0.626s0.15 0.522 0.15 0.848c0 0.425-0.080 0.799-0.238 1.119-0.158 0.321-0.373 0.59-0.645 0.805s-0.588 0.376-0.951 0.484c-0.046 0.014-0.096 0.020-0.143 0.031v1.094h-0.985v-0.965c-0.013 0-0.024 0.003-0.037 0.003-0.279 0-0.539-0.023-0.779-0.068s-0.452-0.101-0.635-0.164c-0.184-0.064-0.337-0.132-0.46-0.202s-0.212-0.132-0.266-0.186-0.093-0.132-0.116-0.234-0.035-0.25-0.035-0.442c0-0.129 0.004-0.238 0.013-0.325 0.008-0.088 0.022-0.159 0.041-0.214 0.019-0.054 0.044-0.093 0.075-0.116 0.031-0.022 0.068-0.034 0.109-0.034 0.059 0 0.141 0.034 0.248 0.104 0.106 0.068 0.243 0.145 0.41 0.228s0.366 0.159 0.598 0.228c0.231 0.069 0.5 0.104 0.804 0.104 0.2 0 0.38-0.024 0.538-0.072s0.293-0.116 0.404-0.203c0.11-0.088 0.194-0.197 0.253-0.326s0.088-0.274 0.088-0.433c0-0.184-0.051-0.342-0.15-0.473-0.1-0.132-0.23-0.248-0.391-0.351s-0.343-0.198-0.547-0.287c-0.205-0.090-0.415-0.185-0.632-0.285s-0.428-0.214-0.632-0.341c-0.204-0.127-0.387-0.279-0.547-0.457-0.16-0.177-0.291-0.387-0.391-0.628-0.1-0.242-0.15-0.532-0.15-0.87 0-0.388 0.072-0.729 0.216-1.022 0.144-0.294 0.338-0.538 0.582-0.732s0.532-0.339 0.863-0.435c0.17-0.049 0.346-0.085 0.527-0.109v-1.035h0.985v1.035c0.039 0.005 0.078 0.003 0.117 0.009 0.192 0.029 0.372 0.068 0.539 0.118 0.166 0.050 0.314 0.105 0.443 0.168s0.215 0.113 0.258 0.155c0.039 0.037 0.067 0.072 0.082 0.102zM11.018 19.005c0 3.319 2.242 6.010 5.008 6.010h-11.119c0.056-0.158 0.101-0.323 0.101-0.5 0-0.83-0.673-1.503-1.502-1.503-0.178 0-0.343 0.045-0.501 0.101v-8.215c0.158 0.057 0.323 0.101 0.501 0.101 0.83 0 1.502-0.672 1.502-1.502 0-0.178-0.045-0.343-0.101-0.501h11.119c-2.766-0.001-5.008 2.69-5.008 6.009zM7.011 16.919c-0.83 0-1.502 0.896-1.502 2.003s0.673 2.003 1.502 2.003c0.83 0 1.502-0.896 1.502-2.003s-0.672-2.003-1.502-2.003z"></path>
</symbol>
<symbol id="icon-target" viewBox="0 0 32 32">
<path d="M28.122 3.584l-2.147 1.898-1.303 0.020-2.73 2.855c1.76 1.87 2.846 4.383 2.846 7.154 0 5.773-4.681 10.455-10.455 10.455s-10.454-4.682-10.454-10.455c0-5.774 4.681-10.455 10.454-10.455 2.645 0 5.053 0.989 6.894 2.608l2.635-2.635 0.002-1.161 2.022-2.335-0.002 2.079 2.238-0.028zM20.885 9.414l-2.658 2.659c0.9 0.977 1.463 2.27 1.463 3.703 0 3.025-2.451 5.476-5.476 5.476s-5.477-2.451-5.477-5.476c0-3.024 2.452-5.477 5.477-5.477 1.231 0 2.355 0.421 3.271 1.107l2.686-2.686c-1.569-1.35-3.605-2.171-5.838-2.171-4.949 0-8.961 4.013-8.961 8.962s4.012 8.96 8.961 8.96 8.961-4.012 8.961-8.96c-0.001-2.358-0.919-4.497-2.409-6.097zM14.172 17.352c-0.824 0-1.493-0.668-1.493-1.493s0.669-1.494 1.493-1.494c0.104 0 0.196 0.039 0.295 0.060l2.313-2.313c-0.728-0.511-1.609-0.816-2.566-0.816-2.475 0-4.48 2.007-4.48 4.481s2.006 4.48 4.48 4.48 4.48-2.006 4.48-4.48c0-1.158-0.451-2.203-1.173-2.999l-2.185 2.186c0.193 0.252 0.329 0.554 0.329 0.896 0.001 0.824-0.668 1.492-1.493 1.492zM9.855 26.748c0.297 0.15 0.602 0.285 0.915 0.406l-1.768 3.062c-0.138 0.238-0.442 0.318-0.681 0.182-0.237-0.137-0.319-0.441-0.182-0.68l1.716-2.97zM14.856 27.531v1.395c0 0.275-0.224 0.498-0.498 0.498-0.275 0-0.498-0.223-0.498-0.498v-1.395c0.166 0.008 0.33 0.025 0.498 0.025s0.332-0.017 0.498-0.025zM20.951 29.719c0.137 0.238 0.056 0.543-0.183 0.68s-0.542 0.057-0.681-0.182l-1.767-3.062c0.312-0.121 0.618-0.256 0.915-0.406l1.716 2.97z"></path>
</symbol>
<symbol id="icon-compass" viewBox="0 0 32 32">
<path d="M29 18.5c0 7.18-5.82 13-13 13s-13-5.82-13-13c0-6.33 4.525-11.597 10.515-12.757-0.325-0.479-0.515-1.057-0.515-1.681 0-1.657 1.343-3 3-3 1.656 0 3 1.343 3 3 0 0.623-0.19 1.201-0.516 1.681 5.991 1.16 10.516 6.427 10.516 12.757zM16 2.5c-0.829 0-1.5 0.672-1.5 1.5s0.671 1.5 1.5 1.5c0.828 0 1.5-0.672 1.5-1.5s-0.672-1.5-1.5-1.5zM17 7.55v2.45h-2v-2.45c-5.421 0.489-9.695 5.034-9.974 10.513h2.974v1.937h-2.896c0.663 5.067 4.767 8.986 9.896 9.449v-2.449h2v2.449c5.107-0.461 9.197-4.412 9.886-9.449h-2.886v-2h2.976c-0.248-5.508-4.536-9.959-9.976-10.45zM9.513 25.162l3.918-8.868 8.81-3.859-3.845 8.794-8.883 3.933zM17.32 17.354c-0.781-0.781-2.048-0.781-2.829 0s-0.781 2.047 0 2.828 2.048 0.781 2.829 0c0.781-0.781 0.781-2.046 0-2.828z"></path>
</symbol>
<symbol id="icon-snooze" viewBox="0 0 24 24">
<path d="M9 11.016v-2.016h6v1.781l-3.609 4.219h3.609v2.016h-6v-1.828l3.609-4.172h-3.609zM12 20.016q2.906 0 4.945-2.063t2.039-4.969-2.039-4.945-4.945-2.039-4.945 2.039-2.039 4.945 2.039 4.969 4.945 2.063zM12 3.984q3.75 0 6.375 2.648t2.625 6.352-2.625 6.352-6.375 2.648-6.375-2.648-2.625-6.352 2.625-6.352 6.375-2.648zM21.984 5.719l-1.266 1.547-4.594-3.891 1.266-1.5zM7.875 3.375l-4.594 3.844-1.266-1.5 4.594-3.844z"></path>
</symbol>
<symbol id="icon-stop" viewBox="0 0 24 24">
<path d="M6 6h12v12h-12v-12z"></path>
</symbol>
<symbol id="icon-megaphone" viewBox="0 0 20 20">
<path d="M17.223 7.030c-1.584-3.686-4.132-6.49-5.421-5.967-2.189 0.891 1.304 5.164-9.447 9.533-0.929 0.379-1.164 1.888-0.775 2.792 0.388 0.902 1.658 1.801 2.587 1.424 0.161-0.066 0.751-0.256 0.751-0.256 0.663 0.891 1.357 0.363 1.604 0.928 0.296 0.68 0.939 2.158 1.158 2.66s0.715 0.967 1.075 0.83c0.359-0.137 1.582-0.602 2.050-0.779s0.579-0.596 0.436-0.924c-0.154-0.355-0.786-0.459-0.967-0.873-0.18-0.412-0.769-1.738-0.938-2.156-0.23-0.568 0.259-1.031 0.97-1.104 4.894-0.512 5.809 2.512 7.475 1.834 1.287-0.525 1.025-4.259-0.558-7.942zM16.672 13.006c-0.287 0.115-2.213-1.402-3.443-4.267-1.231-2.863-1.076-5.48-0.79-5.597 0.286-0.115 2.165 1.717 3.395 4.58s1.124 5.167 0.838 5.284z"></path>
</symbol>
<symbol id="icon-rocket" viewBox="0 0 20 20">
<path d="M11.933 13.069c0 0 7.059-5.094 6.276-10.924-0.017-0.127-0.059-0.213-0.112-0.268-0.054-0.055-0.137-0.098-0.263-0.115-5.697-0.801-10.674 6.422-10.674 6.422-4.318-0.517-4.004 0.344-5.974 5.076-0.377 0.902 0.234 1.213 0.904 0.959 0.67-0.252 2.148-0.811 2.148-0.811l2.59 2.648c0 0-0.546 1.514-0.793 2.199s0.055 1.311 0.938 0.926c4.624-2.016 5.466-1.694 4.96-6.112zM12.942 7.153c-0.598-0.613-0.598-1.604 0-2.217 0.598-0.611 1.567-0.611 2.166 0s0.598 1.603 0 2.217c-0.599 0.611-1.569 0.611-2.166 0z"></path>
</symbol>
<symbol id="icon-users" viewBox="0 0 20 20">
<path d="M15.989 19.129c0-2.246-2.187-3.389-4.317-4.307-2.123-0.914-2.801-1.684-2.801-3.334 0-0.989 0.648-0.667 0.932-2.481 0.12-0.752 0.692-0.012 0.802-1.729 0-0.684-0.313-0.854-0.313-0.854s0.159-1.013 0.221-1.793c0.064-0.817-0.398-2.56-2.301-3.095-0.332-0.341-0.557-0.882 0.467-1.424-2.24-0.104-2.761 1.068-3.954 1.93-1.015 0.756-1.289 1.953-1.24 2.59 0.065 0.78 0.223 1.793 0.223 1.793s-0.314 0.17-0.314 0.854c0.11 1.718 0.684 0.977 0.803 1.729 0.284 1.814 0.933 1.492 0.933 2.481 0 1.65-0.212 2.21-2.336 3.124-2.131 0.917-2.794 2.387-2.783 4.516 0.003 0.637-0.011 0.871-0.011 0.871h16c0 0-0.011-0.234-0.011-0.871zM18.528 13.365c-1.135-0.457-1.605-1.002-1.605-2.066 0-0.641 0.418-0.432 0.602-1.603 0.077-0.484 0.447-0.008 0.518-1.115 0-0.441-0.202-0.551-0.202-0.551s0.103-0.656 0.143-1.159c0.050-0.627-0.364-2.247-2.268-2.247s-2.318 1.62-2.269 2.247c0.042 0.502 0.144 1.159 0.144 1.159s-0.202 0.109-0.202 0.551c0.071 1.107 0.441 0.631 0.518 1.115 0.184 1.172 0.602 0.963 0.602 1.603 0 1.064-0.438 1.562-1.809 2.152-0.069 0.029-0.12 0.068-0.183 0.102 1.64 0.712 4.226 1.941 4.838 4.447h2.645c0 0 0-1.906 0-2.318 0-1-0.273-1.834-1.472-2.317z"></path>
</symbol>
<symbol id="icon-office" viewBox="0 0 32 32">
<path d="M0 32h16v-32h-16v32zM10 4h4v4h-4v-4zM10 12h4v4h-4v-4zM10 20h4v4h-4v-4zM2 4h4v4h-4v-4zM2 12h4v4h-4v-4zM2 20h4v4h-4v-4zM18 10h14v2h-14zM18 32h4v-8h6v8h4v-18h-14z"></path>
</symbol>
<symbol id="icon-book" viewBox="0 0 32 32">
<path d="M28 4v26h-21c-1.657 0-3-1.343-3-3s1.343-3 3-3h19v-24h-20c-2.2 0-4 1.8-4 4v24c0 2.2 1.8 4 4 4h24v-28h-2z"></path>
<path d="M7.002 26v0c-0.001 0-0.001 0-0.002 0-0.552 0-1 0.448-1 1s0.448 1 1 1c0.001 0 0.001-0 0.002-0v0h18.997v-2h-18.997z"></path>
</symbol>
<symbol id="icon-stack" viewBox="0 0 32 32">
<path d="M32 10l-16-8-16 8 16 8 16-8zM16 4.655l10.689 5.345-10.689 5.345-10.689-5.345 10.689-5.345zM28.795 14.398l3.205 1.602-16 8-16-8 3.205-1.602 12.795 6.398zM28.795 20.398l3.205 1.602-16 8-16-8 3.205-1.602 12.795 6.398z"></path>
</symbol>
<symbol id="icon-phone" viewBox="0 0 32 32">
<path d="M22 20c-2 2-2 4-4 4s-4-2-6-4-4-4-4-6 2-2 4-4-4-8-6-8-6 6-6 6c0 4 4.109 12.109 8 16s12 8 16 8c0 0 6-4 6-6s-6-8-8-6z"></path>
</symbol>
<symbol id="icon-envelop" viewBox="0 0 32 32">
<path d="M29 4h-26c-1.65 0-3 1.35-3 3v20c0 1.65 1.35 3 3 3h26c1.65 0 3-1.35 3-3v-20c0-1.65-1.35-3-3-3zM12.461 17.199l-8.461 6.59v-15.676l8.461 9.086zM5.512 8h20.976l-10.488 7.875-10.488-7.875zM12.79 17.553l3.21 3.447 3.21-3.447 6.58 8.447h-19.579l6.58-8.447zM19.539 17.199l8.461-9.086v15.676l-8.461-6.59z"></path>
</symbol>
<symbol id="icon-pushpin" viewBox="0 0 32 32">
<path d="M17 0l-3 3 3 3-7 8h-7l5.5 5.5-8.5 11.269v1.231h1.231l11.269-8.5 5.5 5.5v-7l8-7 3 3 3-3-15-15zM14 17l-2-2 7-7 2 2-7 7z"></path>
</symbol>
<symbol id="icon-location" viewBox="0 0 32 32">
<path d="M16 0c-5.523 0-10 4.477-10 10 0 10 10 22 10 22s10-12 10-22c0-5.523-4.477-10-10-10zM16 16c-3.314 0-6-2.686-6-6s2.686-6 6-6 6 2.686 6 6-2.686 6-6 6z"></path>
</symbol>
<symbol id="icon-map" viewBox="0 0 32 32">
<path d="M0 6l10-4v24l-10 4z"></path>
<path d="M12 1l10 6v23l-10-5z"></path>
<path d="M24 7l8-6v24l-8 6z"></path>
</symbol>
<symbol id="icon-user-tie" viewBox="0 0 32 32">
<path d="M10 6c0-3.314 2.686-6 6-6s6 2.686 6 6c0 3.314-2.686 6-6 6s-6-2.686-6-6zM24.002 14h-1.107l-6.222 12.633 2.327-11.633-3-3-3 3 2.327 11.633-6.222-12.633h-1.107c-3.998 0-3.998 2.687-3.998 6v10h24v-10c0-3.313 0-6-3.998-6z"></path>
</symbol>
<symbol id="icon-search" viewBox="0 0 32 32">
<path d="M31.008 27.231l-7.58-6.447c-0.784-0.705-1.622-1.029-2.299-0.998 1.789-2.096 2.87-4.815 2.87-7.787 0-6.627-5.373-12-12-12s-12 5.373-12 12 5.373 12 12 12c2.972 0 5.691-1.081 7.787-2.87-0.031 0.677 0.293 1.515 0.998 2.299l6.447 7.58c1.104 1.226 2.907 1.33 4.007 0.23s0.997-2.903-0.23-4.007zM12 20c-4.418 0-8-3.582-8-8s3.582-8 8-8 8 3.582 8 8-3.582 8-8 8z"></path>
</symbol>
<symbol id="icon-cogs" viewBox="0 0 32 32">
<path d="M11.366 22.564l1.291-1.807-1.414-1.414-1.807 1.291c-0.335-0.187-0.694-0.337-1.071-0.444l-0.365-2.19h-2l-0.365 2.19c-0.377 0.107-0.736 0.256-1.071 0.444l-1.807-1.291-1.414 1.414 1.291 1.807c-0.187 0.335-0.337 0.694-0.443 1.071l-2.19 0.365v2l2.19 0.365c0.107 0.377 0.256 0.736 0.444 1.071l-1.291 1.807 1.414 1.414 1.807-1.291c0.335 0.187 0.694 0.337 1.071 0.444l0.365 2.19h2l0.365-2.19c0.377-0.107 0.736-0.256 1.071-0.444l1.807 1.291 1.414-1.414-1.291-1.807c0.187-0.335 0.337-0.694 0.444-1.071l2.19-0.365v-2l-2.19-0.365c-0.107-0.377-0.256-0.736-0.444-1.071zM7 27c-1.105 0-2-0.895-2-2s0.895-2 2-2 2 0.895 2 2-0.895 2-2 2zM32 12v-2l-2.106-0.383c-0.039-0.251-0.088-0.499-0.148-0.743l1.799-1.159-0.765-1.848-2.092 0.452c-0.132-0.216-0.273-0.426-0.422-0.629l1.219-1.761-1.414-1.414-1.761 1.219c-0.203-0.149-0.413-0.29-0.629-0.422l0.452-2.092-1.848-0.765-1.159 1.799c-0.244-0.059-0.492-0.109-0.743-0.148l-0.383-2.106h-2l-0.383 2.106c-0.251 0.039-0.499 0.088-0.743 0.148l-1.159-1.799-1.848 0.765 0.452 2.092c-0.216 0.132-0.426 0.273-0.629 0.422l-1.761-1.219-1.414 1.414 1.219 1.761c-0.149 0.203-0.29 0.413-0.422 0.629l-2.092-0.452-0.765 1.848 1.799 1.159c-0.059 0.244-0.109 0.492-0.148 0.743l-2.106 0.383v2l2.106 0.383c0.039 0.251 0.088 0.499 0.148 0.743l-1.799 1.159 0.765 1.848 2.092-0.452c0.132 0.216 0.273 0.426 0.422 0.629l-1.219 1.761 1.414 1.414 1.761-1.219c0.203 0.149 0.413 0.29 0.629 0.422l-0.452 2.092 1.848 0.765 1.159-1.799c0.244 0.059 0.492 0.109 0.743 0.148l0.383 2.106h2l0.383-2.106c0.251-0.039 0.499-0.088 0.743-0.148l1.159 1.799 1.848-0.765-0.452-2.092c0.216-0.132 0.426-0.273 0.629-0.422l1.761 1.219 1.414-1.414-1.219-1.761c0.149-0.203 0.29-0.413 0.422-0.629l2.092 0.452 0.765-1.848-1.799-1.159c0.059-0.244 0.109-0.492 0.148-0.743l2.106-0.383zM21 15.35c-2.402 0-4.35-1.948-4.35-4.35s1.948-4.35 4.35-4.35 4.35 1.948 4.35 4.35c0 2.402-1.948 4.35-4.35 4.35z"></path>
</symbol>
<symbol id="icon-spoon-knife" viewBox="0 0 32 32">
<path d="M7 0c-3.314 0-6 3.134-6 7 0 3.31 1.969 6.083 4.616 6.812l-0.993 16.191c-0.067 1.098 0.778 1.996 1.878 1.996h1c1.1 0 1.945-0.898 1.878-1.996l-0.993-16.191c2.646-0.729 4.616-3.502 4.616-6.812 0-3.866-2.686-7-6-7zM27.167 0l-1.667 10h-1.25l-0.833-10h-0.833l-0.833 10h-1.25l-1.667-10h-0.833v13c0 0.552 0.448 1 1 1h2.604l-0.982 16.004c-0.067 1.098 0.778 1.996 1.878 1.996h1c1.1 0 1.945-0.898 1.878-1.996l-0.982-16.004h2.604c0.552 0 1-0.448 1-1v-13h-0.833z"></path>
</symbol>
<symbol id="icon-leaf" viewBox="0 0 32 32">
<path d="M31.604 4.203c-3.461-2.623-8.787-4.189-14.247-4.189-6.754 0-12.257 2.358-15.099 6.469-1.335 1.931-2.073 4.217-2.194 6.796-0.108 2.296 0.278 4.835 1.146 7.567 2.965-8.887 11.244-15.847 20.79-15.847 0 0-8.932 2.351-14.548 9.631-0.003 0.004-0.078 0.097-0.207 0.272-1.128 1.509-2.111 3.224-2.846 5.166-1.246 2.963-2.4 7.030-2.4 11.931h4c0 0-0.607-3.819 0.449-8.212 1.747 0.236 3.308 0.353 4.714 0.353 3.677 0 6.293-0.796 8.231-2.504 1.736-1.531 2.694-3.587 3.707-5.764 1.548-3.325 3.302-7.094 8.395-10.005 0.292-0.167 0.48-0.468 0.502-0.804s-0.126-0.659-0.394-0.862z"></path>
</symbol>
<symbol id="icon-airplane" viewBox="0 0 32 32">
<path d="M24 19.999l-5.713-5.713 13.713-10.286-4-4-17.141 6.858-5.397-5.397c-1.556-1.556-3.728-1.928-4.828-0.828s-0.727 3.273 0.828 4.828l5.396 5.396-6.858 17.143 4 4 10.287-13.715 5.713 5.713v7.999h4l2-6 6-2v-4l-7.999 0z"></path>
</symbol>
<symbol id="icon-truck" viewBox="0 0 32 32">
<path d="M32 18l-4-8h-6v-4c0-1.1-0.9-2-2-2h-18c-1.1 0-2 0.9-2 2v16l2 2h2.536c-0.341 0.588-0.536 1.271-0.536 2 0 2.209 1.791 4 4 4s4-1.791 4-4c0-0.729-0.196-1.412-0.536-2h11.073c-0.341 0.588-0.537 1.271-0.537 2 0 2.209 1.791 4 4 4s4-1.791 4-4c0-0.729-0.196-1.412-0.537-2h2.537v-6zM22 18v-6h4.146l3 6h-7.146z"></path>
</symbol>
<symbol id="icon-target1" viewBox="0 0 32 32">
<path d="M32 14h-3.154c-0.864-5.57-5.276-9.982-10.846-10.846v-3.154h-4v3.154c-5.57 0.864-9.982 5.276-10.846 10.846h-3.154v4h3.154c0.864 5.57 5.276 9.982 10.846 10.846v3.154h4v-3.154c5.57-0.864 9.982-5.276 10.846-10.846h3.154v-4zM24.776 14h-3.118c-0.603-1.705-1.953-3.056-3.658-3.658v-3.118c3.36 0.765 6.010 3.416 6.776 6.776zM16 18c-1.105 0-2-0.895-2-2s0.895-2 2-2c1.105 0 2 0.895 2 2s-0.895 2-2 2zM14 7.224v3.118c-1.705 0.603-3.056 1.953-3.658 3.658h-3.118c0.765-3.36 3.416-6.010 6.776-6.776zM7.224 18h3.118c0.603 1.705 1.953 3.056 3.658 3.658v3.118c-3.36-0.765-6.010-3.416-6.776-6.776zM18 24.776v-3.118c1.705-0.603 3.056-1.953 3.658-3.658h3.118c-0.765 3.36-3.416 6.010-6.776 6.776z"></path>
</symbol>
<symbol id="icon-star-full" viewBox="0 0 32 32">
<path d="M32 12.408l-11.056-1.607-4.944-10.018-4.944 10.018-11.056 1.607 8 7.798-1.889 11.011 9.889-5.199 9.889 5.199-1.889-11.011 8-7.798z"></path>
</symbol>
<symbol id="icon-circle-down" viewBox="0 0 32 32">
<path d="M32 16c0-8.837-7.163-16-16-16s-16 7.163-16 16 7.163 16 16 16 16-7.163 16-16zM3 16c0-7.18 5.82-13 13-13s13 5.82 13 13-5.82 13-13 13-13-5.82-13-13z"></path>
<path d="M9.914 11.086l-2.829 2.829 8.914 8.914 8.914-8.914-2.828-2.828-6.086 6.086z"></path>
</symbol>
<symbol id="icon-facebook2" viewBox="0 0 32 32">
<path d="M29 0h-26c-1.65 0-3 1.35-3 3v26c0 1.65 1.35 3 3 3h13v-14h-4v-4h4v-2c0-3.306 2.694-6 6-6h4v4h-4c-1.1 0-2 0.9-2 2v2h6l-1 4h-5v14h9c1.65 0 3-1.35 3-3v-26c0-1.65-1.35-3-3-3z"></path>
</symbol>
<symbol id="icon-instagram" viewBox="0 0 32 32">
<path d="M16 2.881c4.275 0 4.781 0.019 6.462 0.094 1.563 0.069 2.406 0.331 2.969 0.55 0.744 0.288 1.281 0.638 1.837 1.194 0.563 0.563 0.906 1.094 1.2 1.838 0.219 0.563 0.481 1.412 0.55 2.969 0.075 1.688 0.094 2.194 0.094 6.463s-0.019 4.781-0.094 6.463c-0.069 1.563-0.331 2.406-0.55 2.969-0.288 0.744-0.637 1.281-1.194 1.837-0.563 0.563-1.094 0.906-1.837 1.2-0.563 0.219-1.413 0.481-2.969 0.55-1.688 0.075-2.194 0.094-6.463 0.094s-4.781-0.019-6.463-0.094c-1.563-0.069-2.406-0.331-2.969-0.55-0.744-0.288-1.281-0.637-1.838-1.194-0.563-0.563-0.906-1.094-1.2-1.837-0.219-0.563-0.481-1.413-0.55-2.969-0.075-1.688-0.094-2.194-0.094-6.463s0.019-4.781 0.094-6.463c0.069-1.563 0.331-2.406 0.55-2.969 0.288-0.744 0.638-1.281 1.194-1.838 0.563-0.563 1.094-0.906 1.838-1.2 0.563-0.219 1.412-0.481 2.969-0.55 1.681-0.075 2.188-0.094 6.463-0.094zM16 0c-4.344 0-4.887 0.019-6.594 0.094-1.7 0.075-2.869 0.35-3.881 0.744-1.056 0.412-1.95 0.956-2.837 1.85-0.894 0.888-1.438 1.781-1.85 2.831-0.394 1.019-0.669 2.181-0.744 3.881-0.075 1.713-0.094 2.256-0.094 6.6s0.019 4.887 0.094 6.594c0.075 1.7 0.35 2.869 0.744 3.881 0.413 1.056 0.956 1.95 1.85 2.837 0.887 0.887 1.781 1.438 2.831 1.844 1.019 0.394 2.181 0.669 3.881 0.744 1.706 0.075 2.25 0.094 6.594 0.094s4.888-0.019 6.594-0.094c1.7-0.075 2.869-0.35 3.881-0.744 1.050-0.406 1.944-0.956 2.831-1.844s1.438-1.781 1.844-2.831c0.394-1.019 0.669-2.181 0.744-3.881 0.075-1.706 0.094-2.25 0.094-6.594s-0.019-4.887-0.094-6.594c-0.075-1.7-0.35-2.869-0.744-3.881-0.394-1.063-0.938-1.956-1.831-2.844-0.887-0.887-1.781-1.438-2.831-1.844-1.019-0.394-2.181-0.669-3.881-0.744-1.712-0.081-2.256-0.1-6.6-0.1v0z"></path>
<path d="M16 7.781c-4.537 0-8.219 3.681-8.219 8.219s3.681 8.219 8.219 8.219 8.219-3.681 8.219-8.219c0-4.537-3.681-8.219-8.219-8.219zM16 21.331c-2.944 0-5.331-2.387-5.331-5.331s2.387-5.331 5.331-5.331c2.944 0 5.331 2.387 5.331 5.331s-2.387 5.331-5.331 5.331z"></path>
<path d="M26.462 7.456c0 1.060-0.859 1.919-1.919 1.919s-1.919-0.859-1.919-1.919c0-1.060 0.859-1.919 1.919-1.919s1.919 0.859 1.919 1.919z"></path>
</symbol>
<symbol id="icon-twitter" viewBox="0 0 32 32">
<path d="M32 7.075c-1.175 0.525-2.444 0.875-3.769 1.031 1.356-0.813 2.394-2.1 2.887-3.631-1.269 0.75-2.675 1.3-4.169 1.594-1.2-1.275-2.906-2.069-4.794-2.069-3.625 0-6.563 2.938-6.563 6.563 0 0.512 0.056 1.012 0.169 1.494-5.456-0.275-10.294-2.888-13.531-6.862-0.563 0.969-0.887 2.1-0.887 3.3 0 2.275 1.156 4.287 2.919 5.463-1.075-0.031-2.087-0.331-2.975-0.819 0 0.025 0 0.056 0 0.081 0 3.181 2.263 5.838 5.269 6.437-0.55 0.15-1.131 0.231-1.731 0.231-0.425 0-0.831-0.044-1.237-0.119 0.838 2.606 3.263 4.506 6.131 4.563-2.25 1.762-5.075 2.813-8.156 2.813-0.531 0-1.050-0.031-1.569-0.094 2.913 1.869 6.362 2.95 10.069 2.95 12.075 0 18.681-10.006 18.681-18.681 0-0.287-0.006-0.569-0.019-0.85 1.281-0.919 2.394-2.075 3.275-3.394z"></path>
</symbol>
</defs>
</svg>
