<svg aria-hidden="true" style="position: absolute; width: 0; height: 0; overflow: hidden;" version="1.1" xmlns="http://www.w3.org/2000/svg" xmlns:xlink="http://www.w3.org/1999/xlink">
<defs>
<symbol id="icon-suitcase" viewBox="0 0 32 32">
<path d="M28 29h-24c-1.104 0-2-0.896-2-2v-9h4v3h4v-3h12v3h4v-3h4v9c0 1.104-0.896 2-2 2zM23 20v-4h2v4h-2zM7 20v-4h2v4h-2zM26 15h-4v2h-12v-2h-4v2h-4v-7c0-1.104 0.896-2 2-2h24c1.104 0 2 0.896 2 2v7h-4v-2zM19 4.979h-6v2.021h-2v-0.979h1v-3.021h8.021v3h0.979v1h-2v-2.021z"></path>
</symbol>
<symbol id="icon-dollar" viewBox="0 0 38 32">
<path d="M36.002 23.010l0.057-17.089-31.050 0.019-0.001-1.96h32.992v19.031l-1.998-0.001zM34.995 26.017l-1.997-0.002 0.057-17.089-31.050 0.020-0.001-1.96h32.992v19.031zM32.053 28.020h-32.053v-18.030h32.053v18.030zM30.049 11.931h-28.046v14.086h28.045v-14.086zM27.045 24.515c0 0.177 0.044 0.342 0.101 0.5h-11.12c2.766 0 5.009-2.69 5.009-6.010s-2.243-6.010-5.009-6.010h11.119c-0.057 0.158-0.101 0.323-0.101 0.501 0 0.83 0.672 1.502 1.502 1.502 0.178 0 0.343-0.044 0.501-0.101v8.215c-0.158-0.056-0.323-0.101-0.501-0.101-0.829 0.001-1.501 0.674-1.501 1.504zM25.041 16.919c-0.83 0-1.502 0.896-1.502 2.003s0.672 2.003 1.502 2.003 1.502-0.896 1.502-2.003-0.672-2.003-1.502-2.003zM18.123 15.394c0.015 0.029 0.027 0.068 0.037 0.116 0.011 0.048 0.018 0.109 0.021 0.182 0.005 0.073 0.007 0.164 0.007 0.273 0 0.121-0.003 0.224-0.009 0.307-0.007 0.084-0.018 0.153-0.031 0.207-0.016 0.055-0.036 0.095-0.062 0.119-0.027 0.025-0.064 0.038-0.11 0.038s-0.118-0.029-0.219-0.087c-0.101-0.059-0.224-0.121-0.369-0.189s-0.315-0.131-0.507-0.187-0.402-0.084-0.632-0.084c-0.18 0-0.336 0.021-0.469 0.065-0.134 0.044-0.246 0.104-0.335 0.181s-0.157 0.17-0.2 0.277c-0.044 0.108-0.066 0.223-0.066 0.343 0 0.18 0.049 0.335 0.147 0.467s0.229 0.248 0.395 0.35c0.165 0.103 0.352 0.198 0.56 0.288s0.421 0.185 0.638 0.284c0.217 0.101 0.43 0.214 0.639 0.342 0.209 0.127 0.395 0.279 0.557 0.456 0.163 0.178 0.295 0.386 0.395 0.626s0.15 0.522 0.15 0.848c0 0.425-0.080 0.799-0.238 1.119-0.158 0.321-0.373 0.59-0.645 0.805s-0.588 0.376-0.951 0.484c-0.046 0.014-0.096 0.020-0.143 0.031v1.094h-0.985v-0.965c-0.013 0-0.024 0.003-0.037 0.003-0.279 0-0.539-0.023-0.779-0.068s-0.452-0.101-0.635-0.164c-0.184-0.064-0.337-0.132-0.46-0.202s-0.212-0.132-0.266-0.186-0.093-0.132-0.116-0.234-0.035-0.25-0.035-0.442c0-0.129 0.004-0.238 0.013-0.325 0.008-0.088 0.022-0.159 0.041-0.214 0.019-0.054 0.044-0.093 0.075-0.116 0.031-0.022 0.068-0.034 0.109-0.034 0.059 0 0.141 0.034 0.248 0.104 0.106 0.068 0.243 0.145 0.41 0.228s0.366 0.159 0.598 0.228c0.231 0.069 0.5 0.104 0.804 0.104 0.2 0 0.38-0.024 0.538-0.072s0.293-0.116 0.404-0.203c0.11-0.088 0.194-0.197 0.253-0.326s0.088-0.274 0.088-0.433c0-0.184-0.051-0.342-0.15-0.473-0.1-0.132-0.23-0.248-0.391-0.351s-0.343-0.198-0.547-0.287c-0.205-0.090-0.415-0.185-0.632-0.285s-0.428-0.214-0.632-0.341c-0.204-0.127-0.387-0.279-0.547-0.457-0.16-0.177-0.291-0.387-0.391-0.628-0.1-0.242-0.15-0.532-0.15-0.87 0-0.388 0.072-0.729 0.216-1.022 0.144-0.294 0.338-0.538 0.582-0.732s0.532-0.339 0.863-0.435c0.17-0.049 0.346-0.085 0.527-0.109v-1.035h0.985v1.035c0.039 0.005 0.078 0.003 0.117 0.009 0.192 0.029 0.372 0.068 0.539 0.118 0.166 0.050 0.314 0.105 0.443 0.168s0.215 0.113 0.258 0.155c0.039 0.037 0.067 0.072 0.082 0.102zM11.018 19.005c0 3.319 2.242 6.010 5.008 6.010h-11.119c0.056-0.158 0.101-0.323 0.101-0.5 0-0.83-0.673-1.503-1.502-1.503-0.178 0-0.343 0.045-0.501 0.101v-8.215c0.158 0.057 0.323 0.101 0.501 0.101 0.83 0 1.502-0.672 1.502-1.502 0-0.178-0.045-0.343-0.101-0.501h11.119c-2.766-0.001-5.008 2.69-5.008 6.009zM7.011 16.919c-0.83 0-1.502 0.896-1.502 2.003s0.673 2.003 1.502 2.003c0.83 0 1.502-0.896 1.502-2.003s-0.672-2.003-1.502-2.003z"></path>
</symbol>
<symbol id="icon-compass" viewBox="0 0 32 32">
<path d="M29 18.5c0 7.18-5.82 13-13 13s-13-5.82-13-13c0-6.33 4.525-11.597 10.515-12.757-0.325-0.479-0.515-1.057-0.515-1.681 0-1.657 1.343-3 3-3 1.656 0 3 1.343 3 3 0 0.623-0.19 1.201-0.516 1.681 5.991 1.16 10.516 6.427 10.516 12.757zM16 2.5c-0.829 0-1.5 0.672-1.5 1.5s0.671 1.5 1.5 1.5c0.828 0 1.5-0.672 1.5-1.5s-0.672-1.5-1.5-1.5zM17 7.55v2.45h-2v-2.45c-5.421 0.489-9.695 5.034-9.974 10.513h2.974v1.937h-2.896c0.663 5.067 4.767 8.986 9.896 9.449v-2.449h2v2.449c5.107-0.461 9.197-4.412 9.886-9.449h-2.886v-2h2.976c-0.248-5.508-4.536-9.959-9.976-10.45zM9.513 25.162l3.918-8.868 8.81-3.859-3.845 8.794-8.883 3.933zM17.32 17.354c-0.781-0.781-2.048-0.781-2.829 0s-0.781 2.047 0 2.828 2.048 0.781 2.829 0c0.781-0.781 0.781-2.046 0-2.828z"></path>
</symbol>
<symbol id="icon-office" viewBox="0 0 32 32">
<path d="M0 32h16v-32h-16v32zM10 4h4v4h-4v-4zM10 12h4v4h-4v-4zM10 20h4v4h-4v-4zM2 4h4v4h-4v-4zM2 12h4v4h-4v-4zM2 20h4v4h-4v-4zM18 10h14v2h-14zM18 32h4v-8h6v8h4v-18h-14z"></path>
</symbol>
<symbol id="icon-book" viewBox="0 0 32 32">
<path d="M28 4v26h-21c-1.657 0-3-1.343-3-3s1.343-3 3-3h19v-24h-20c-2.2 0-4 1.8-4 4v24c0 2.2 1.8 4 4 4h24v-28h-2z"></path>
<path d="M7.002 26v0c-0.001 0-0.001 0-0.002 0-0.552 0-1 0.448-1 1s0.448 1 1 1c0.001 0 0.001-0 0.002-0v0h18.997v-2h-18.997z"></path>
</symbol>
<symbol id="icon-stack" viewBox="0 0 32 32">
<path d="M32 10l-16-8-16 8 16 8 16-8zM16 4.655l10.689 5.345-10.689 5.345-10.689-5.345 10.689-5.345zM28.795 14.398l3.205 1.602-16 8-16-8 3.205-1.602 12.795 6.398zM28.795 20.398l3.205 1.602-16 8-16-8 3.205-1.602 12.795 6.398z"></path>
</symbol>
<symbol id="icon-phone" viewBox="0 0 32 32">
<path d="M22 20c-2 2-2 4-4 4s-4-2-6-4-4-4-4-6 2-2 4-4-4-8-6-8-6 6-6 6c0 4 4.109 12.109 8 16s12 8 16 8c0 0 6-4 6-6s-6-8-8-6z"></path>
</symbol>
<symbol id="icon-envelop" viewBox="0 0 32 32">
<path d="M29 4h-26c-1.65 0-3 1.35-3 3v20c0 1.65 1.35 3 3 3h26c1.65 0 3-1.35 3-3v-20c0-1.65-1.35-3-3-3zM12.461 17.199l-8.461 6.59v-15.676l8.461 9.086zM5.512 8h20.976l-10.488 7.875-10.488-7.875zM12.79 17.553l3.21 3.447 3.21-3.447 6.58 8.447h-19.579l6.58-8.447zM19.539 17.199l8.461-9.086v15.676l-8.461-6.59z"></path>
</symbol>
<symbol id="icon-pushpin" viewBox="0 0 32 32">
<path d="M17 0l-3 3 3 3-7 8h-7l5.5 5.5-8.5 11.269v1.231h1.231l11.269-8.5 5.5 5.5v-7l8-7 3 3 3-3-15-15zM14 17l-2-2 7-7 2 2-7 7z"></path>
</symbol>
<symbol id="icon-location" viewBox="0 0 32 32">
<path d="M16 0c-5.523 0-10 4.477-10 10 0 10 10 22 10 22s10-12 10-22c0-5.523-4.477-10-10-10zM16 16c-3.314 0-6-2.686-6-6s2.686-6 6-6 6 2.686 6 6-2.686 6-6 6z"></path>
</symbol>
<symbol id="icon-map" viewBox="0 0 32 32">
<path d="M0 6l10-4v24l-10 4z"></path>
<path d="M12 1l10 6v23l-10-5z"></path>
<path d="M24 7l8-6v24l-8 6z"></path>
</symbol>
<symbol id="icon-user-tie" viewBox="0 0 32 32">
<path d="M10 6c0-3.314 2.686-6 6-6s6 2.686 6 6c0 3.314-2.686 6-6 6s-6-2.686-6-6zM24.002 14h-1.107l-6.222 12.633 2.327-11.633-3-3-3 3 2.327 11.633-6.222-12.633h-1.107c-3.998 0-3.998 2.687-3.998 6v10h24v-10c0-3.313 0-6-3.998-6z"></path>
</symbol>
<symbol id="icon-search" viewBox="0 0 32 32">
<path d="M31.008 27.231l-7.58-6.447c-0.784-0.705-1.622-1.029-2.299-0.998 1.789-2.096 2.87-4.815 2.87-7.787 0-6.627-5.373-12-12-12s-12 5.373-12 12 5.373 12 12 12c2.972 0 5.691-1.081 7.787-2.87-0.031 0.677 0.293 1.515 0.998 2.299l6.447 7.58c1.104 1.226 2.907 1.33 4.007 0.23s0.997-2.903-0.23-4.007zM12 20c-4.418 0-8-3.582-8-8s3.582-8 8-8 8 3.582 8 8-3.582 8-8 8z"></path>
</symbol>
<symbol id="icon-cogs" viewBox="0 0 32 32">
<path d="M11.366 22.564l1.291-1.807-1.414-1.414-1.807 1.291c-0.335-0.187-0.694-0.337-1.071-0.444l-0.365-2.19h-2l-0.365 2.19c-0.377 0.107-0.736 0.256-1.071 0.444l-1.807-1.291-1.414 1.414 1.291 1.807c-0.187 0.335-0.337 0.694-0.443 1.071l-2.19 0.365v2l2.19 0.365c0.107 0.377 0.256 0.736 0.444 1.071l-1.291 1.807 1.414 1.414 1.807-1.291c0.335 0.187 0.694 0.337 1.071 0.444l0.365 2.19h2l0.365-2.19c0.377-0.107 0.736-0.256 1.071-0.444l1.807 1.291 1.414-1.414-1.291-1.807c0.187-0.335 0.337-0.694 0.444-1.071l2.19-0.365v-2l-2.19-0.365c-0.107-0.377-0.256-0.736-0.444-1.071zM7 27c-1.105 0-2-0.895-2-2s0.895-2 2-2 2 0.895 2 2-0.895 2-2 2zM32 12v-2l-2.106-0.383c-0.039-0.251-0.088-0.499-0.148-0.743l1.799-1.159-0.765-1.848-2.092 0.452c-0.132-0.216-0.273-0.426-0.422-0.629l1.219-1.761-1.414-1.414-1.761 1.219c-0.203-0.149-0.413-0.29-0.629-0.422l0.452-2.092-1.848-0.765-1.159 1.799c-0.244-0.059-0.492-0.109-0.743-0.148l-0.383-2.106h-2l-0.383 2.106c-0.251 0.039-0.499 0.088-0.743 0.148l-1.159-1.799-1.848 0.765 0.452 2.092c-0.216 0.132-0.426 0.273-0.629 0.422l-1.761-1.219-1.414 1.414 1.219 1.761c-0.149 0.203-0.29 0.413-0.422 0.629l-2.092-0.452-0.765 1.848 1.799 1.159c-0.059 0.244-0.109 0.492-0.148 0.743l-2.106 0.383v2l2.106 0.383c0.039 0.251 0.088 0.499 0.148 0.743l-1.799 1.159 0.765 1.848 2.092-0.452c0.132 0.216 0.273 0.426 0.422 0.629l-1.219 1.761 1.414 1.414 1.761-1.219c0.203 0.149 0.413 0.29 0.629 0.422l-0.452 2.092 1.848 0.765 1.159-1.799c0.244 0.059 0.492 0.109 0.743 0.148l0.383 2.106h2l0.383-2.106c0.251-0.039 0.499-0.088 0.743-0.148l1.159 1.799 1.848-0.765-0.452-2.092c0.216-0.132 0.426-0.273 0.629-0.422l1.761 1.219 1.414-1.414-1.219-1.761c0.149-0.203 0.29-0.413 0.422-0.629l2.092 0.452 0.765-1.848-1.799-1.159c0.059-0.244 0.109-0.492 0.148-0.743l2.106-0.383zM21 15.35c-2.402 0-4.35-1.948-4.35-4.35s1.948-4.35 4.35-4.35 4.35 1.948 4.35 4.35c0 2.402-1.948 4.35-4.35 4.35z"></path>
</symbol>
<symbol id="icon-spoon-knife" viewBox="0 0 32 32">
<path d="M7 0c-3.314 0-6 3.134-6 7 0 3.31 1.969 6.083 4.616 6.812l-0.993 16.191c-0.067 1.098 0.778 1.996 1.878 1.996h1c1.1 0 1.945-0.898 1.878-1.996l-0.993-16.191c2.646-0.729 4.616-3.502 4.616-6.812 0-3.866-2.686-7-6-7zM27.167 0l-1.667 10h-1.25l-0.833-10h-0.833l-0.833 10h-1.25l-1.667-10h-0.833v13c0 0.552 0.448 1 1 1h2.604l-0.982 16.004c-0.067 1.098 0.778 1.996 1.878 1.996h1c1.1 0 1.945-0.898 1.878-1.996l-0.982-16.004h2.604c0.552 0 1-0.448 1-1v-13h-0.833z"></path>
</symbol>
<symbol id="icon-leaf" viewBox="0 0 32 32">
<path d="M31.604 4.203c-3.461-2.623-8.787-4.189-14.247-4.189-6.754 0-12.257 2.358-15.099 6.469-1.335 1.931-2.073 4.217-2.194 6.796-0.108 2.296 0.278 4.835 1.146 7.567 2.965-8.887 11.244-15.847 20.79-15.847 0 0-8.932 2.351-14.548 9.631-0.003 0.004-0.078 0.097-0.207 0.272-1.128 1.509-2.111 3.224-2.846 5.166-1.246 2.963-2.4 7.030-2.4 11.931h4c0 0-0.607-3.819 0.449-8.212 1.747 0.236 3.308 0.353 4.714 0.353 3.677 0 6.293-0.796 8.231-2.504 1.736-1.531 2.694-3.587 3.707-5.764 1.548-3.325 3.302-7.094 8.395-10.005 0.292-0.167 0.48-0.468 0.502-0.804s-0.126-0.659-0.394-0.862z"></path>
</symbol>
<symbol id="icon-airplane" viewBox="0 0 32 32">
<path d="M24 19.999l-5.713-5.713 13.713-10.286-4-4-17.141 6.858-5.397-5.397c-1.556-1.556-3.728-1.928-4.828-0.828s-0.727 3.273 0.828 4.828l5.396 5.396-6.858 17.143 4 4 10.287-13.715 5.713 5.713v7.999h4l2-6 6-2v-4l-7.999 0z"></path>
</symbol>
<symbol id="icon-truck" viewBox="0 0 32 32">
<path d="M32 18l-4-8h-6v-4c0-1.1-0.9-2-2-2h-18c-1.1 0-2 0.9-2 2v16l2 2h2.536c-0.341 0.588-0.536 1.271-0.536 2 0 2.209 1.791 4 4 4s4-1.791 4-4c0-0.729-0.196-1.412-0.536-2h11.073c-0.341 0.588-0.537 1.271-0.537 2 0 2.209 1.791 4 4 4s4-1.791 4-4c0-0.729-0.196-1.412-0.537-2h2.537v-6zM22 18v-6h4.146l3 6h-7.146z"></path>
</symbol>
<symbol id="icon-target" viewBox="0 0 32 32">
<path d="M32 14h-3.154c-0.864-5.57-5.276-9.982-10.846-10.846v-3.154h-4v3.154c-5.57 0.864-9.982 5.276-10.846 10.846h-3.154v4h3.154c0.864 5.57 5.276 9.982 10.846 10.846v3.154h4v-3.154c5.57-0.864 9.982-5.276 10.846-10.846h3.154v-4zM24.776 14h-3.118c-0.603-1.705-1.953-3.056-3.658-3.658v-3.118c3.36 0.765 6.010 3.416 6.776 6.776zM16 18c-1.105 0-2-0.895-2-2s0.895-2 2-2c1.105 0 2 0.895 2 2s-0.895 2-2 2zM14 7.224v3.118c-1.705 0.603-3.056 1.953-3.658 3.658h-3.118c0.765-3.36 3.416-6.010 6.776-6.776zM7.224 18h3.118c0.603 1.705 1.953 3.056 3.658 3.658v3.118c-3.36-0.765-6.010-3.416-6.776-6.776zM18 24.776v-3.118c1.705-0.603 3.056-1.953 3.658-3.658h3.118c-0.765 3.36-3.416 6.010-6.776 6.776z"></path>
</symbol>
<symbol id="icon-star-full" viewBox="0 0 32 32">
<path d="M32 12.408l-11.056-1.607-4.944-10.018-4.944 10.018-11.056 1.607 8 7.798-1.889 11.011 9.889-5.199 9.889 5.199-1.889-11.011 8-7.798z"></path>
</symbol>
<symbol id="icon-circle-down" viewBox="0 0 32 32">
<path d="M32 16c0-8.837-7.163-16-16-16s-16 7.163-16 16 7.163 16 16 16 16-7.163 16-16zM3 16c0-7.18 5.82-13 13-13s13 5.82 13 13-5.82 13-13 13-13-5.82-13-13z"></path>
<path d="M9.914 11.086l-2.829 2.829 8.914 8.914 8.914-8.914-2.828-2.828-6.086 6.086z"></path>
</symbol>
<symbol id="icon-facebook2" viewBox="0 0 32 32">
<path d="M29 0h-26c-1.65 0-3 1.35-3 3v26c0 1.65 1.35 3 3 3h13v-14h-4v-4h4v-2c0-3.306 2.694-6 6-6h4v4h-4c-1.1 0-2 0.9-2 2v2h6l-1 4h-5v14h9c1.65 0 3-1.35 3-3v-26c0-1.65-1.35-3-3-3z"></path>
</symbol>
<symbol id="icon-instagram" viewBox="0 0 32 32">
<path d="M16 2.881c4.275 0 4.781 0.019 6.462 0.094 1.563 0.069 2.406 0.331 2.969 0.55 0.744 0.288 1.281 0.638 1.837 1.194 0.563 0.563 0.906 1.094 1.2 1.838 0.219 0.563 0.481 1.412 0.55 2.969 0.075 1.688 0.094 2.194 0.094 6.463s-0.019 4.781-0.094 6.463c-0.069 1.563-0.331 2.406-0.55 2.969-0.288 0.744-0.637 1.281-1.194 1.837-0.563 0.563-1.094 0.906-1.837 1.2-0.563 0.219-1.413 0.481-2.969 0.55-1.688 0.075-2.194 0.094-6.463 0.094s-4.781-0.019-6.463-0.094c-1.563-0.069-2.406-0.331-2.969-0.55-0.744-0.288-1.281-0.637-1.838-1.194-0.563-0.563-0.906-1.094-1.2-1.837-0.219-0.563-0.481-1.413-0.55-2.969-0.075-1.688-0.094-2.194-0.094-6.463s0.019-4.781 0.094-6.463c0.069-1.563 0.331-2.406 0.55-2.969 0.288-0.744 0.638-1.281 1.194-1.838 0.563-0.563 1.094-0.906 1.838-1.2 0.563-0.219 1.412-0.481 2.969-0.55 1.681-0.075 2.188-0.094 6.463-0.094zM16 0c-4.344 0-4.887 0.019-6.594 0.094-1.7 0.075-2.869 0.35-3.881 0.744-1.056 0.412-1.95 0.956-2.837 1.85-0.894 0.888-1.438 1.781-1.85 2.831-0.394 1.019-0.669 2.181-0.744 3.881-0.075 1.713-0.094 2.256-0.094 6.6s0.019 4.887 0.094 6.594c0.075 1.7 0.35 2.869 0.744 3.881 0.413 1.056 0.956 1.95 1.85 2.837 0.887 0.887 1.781 1.438 2.831 1.844 1.019 0.394 2.181 0.669 3.881 0.744 1.706 0.075 2.25 0.094 6.594 0.094s4.888-0.019 6.594-0.094c1.7-0.075 2.869-0.35 3.881-0.744 1.050-0.406 1.944-0.956 2.831-1.844s1.438-1.781 1.844-2.831c0.394-1.019 0.669-2.181 0.744-3.881 0.075-1.706 0.094-2.25 0.094-6.594s-0.019-4.887-0.094-6.594c-0.075-1.7-0.35-2.869-0.744-3.881-0.394-1.063-0.938-1.956-1.831-2.844-0.887-0.887-1.781-1.438-2.831-1.844-1.019-0.394-2.181-0.669-3.881-0.744-1.712-0.081-2.256-0.1-6.6-0.1v0z"></path>
<path d="M16 7.781c-4.537 0-8.219 3.681-8.219 8.219s3.681 8.219 8.219 8.219 8.219-3.681 8.219-8.219c0-4.537-3.681-8.219-8.219-8.219zM16 21.331c-2.944 0-5.331-2.387-5.331-5.331s2.387-5.331 5.331-5.331c2.944 0 5.331 2.387 5.331 5.331s-2.387 5.331-5.331 5.331z"></path>
<path d="M26.462 7.456c0 1.060-0.859 1.919-1.919 1.919s-1.919-0.859-1.919-1.919c0-1.060 0.859-1.919 1.919-1.919s1.919 0.859 1.919 1.919z"></path>
</symbol>
<symbol id="icon-twitter" viewBox="0 0 32 32">
<path d="M32 7.075c-1.175 0.525-2.444 0.875-3.769 1.031 1.356-0.813 2.394-2.1 2.887-3.631-1.269 0.75-2.675 1.3-4.169 1.594-1.2-1.275-2.906-2.069-4.794-2.069-3.625 0-6.563 2.938-6.563 6.563 0 0.512 0.056 1.012 0.169 1.494-5.456-0.275-10.294-2.888-13.531-6.862-0.563 0.969-0.887 2.1-0.887 3.3 0 2.275 1.156 4.287 2.919 5.463-1.075-0.031-2.087-0.331-2.975-0.819 0 0.025 0 0.056 0 0.081 0 3.181 2.263 5.838 5.269 6.437-0.55 0.15-1.131 0.231-1.731 0.231-0.425 0-0.831-0.044-1.237-0.119 0.838 2.606 3.263 4.506 6.131 4.563-2.25 1.762-5.075 2.813-8.156 2.813-0.531 0-1.050-0.031-1.569-0.094 2.913 1.869 6.362 2.95 10.069 2.95 12.075 0 18.681-10.006 18.681-18.681 0-0.287-0.006-0.569-0.019-0.85 1.281-0.919 2.394-2.075 3.275-3.394z"></path>
</symbol>
</defs>
</svg>
